<svg xmlns:xlink="http://www.w3.org/1999/xlink" viewBox="0 0 540 265" height="265" xmlns="http://www.w3.org/2000/svg" width="540">
    <defs/>
    <g transform="translate(-342,-542)">
        <g transform="translate(562,543)" id="shape1">
            <path d="M0,30C0,13.4,22.4,0,50,0C77.6,0,100,13.4,100,30C100,46.6,77.6,60,50,60C22.4,60,0,46.6,0,30z" fill="#004400" fill-rule="evenodd"/>
            <text xml:space="preserve" style="fill:#ffffff;font-family:Open Sans,Candara,Helvetica Neue,Noto Sans,sans-serif;font-size:16pt">
                <tspan y="38" x="30.5">DEX</tspan>
            </text>
        </g>
        <g transform="translate(562,644.5)" id="shape2">
            <path d="M0,30C0,13.4,22.4,0,50,0C77.6,0,100,13.4,100,30C100,46.6,77.6,60,50,60C22.4,60,0,46.6,0,30z" fill="#004400" fill-rule="evenodd"/>
            <text xml:space="preserve" style="fill:#ffff00;font-family:Open Sans,Candara,Helvetica Neue,Noto Sans,sans-serif;font-size:16pt">
                <tspan y="38" x="35">KIF</tspan>
            </text>
        </g>
        <g transform="translate(562,746)" id="shape3">
            <path d="M0,30C0,13.4,22.4,0,50,0C77.6,0,100,13.4,100,30C100,46.6,77.6,60,50,60C22.4,60,0,46.6,0,30z" fill="#004400" fill-rule="evenodd"/>
            <text xml:space="preserve" style="fill:#ffffff;font-family:Open Sans,Candara,Helvetica Neue,Noto Sans,sans-serif;font-size:16pt">
                <tspan y="38" x="19">kBASE</tspan>
            </text>
        </g>
        <g transform="translate(343,637.5)" id="shape4">
            <path d="M20,74L131,74L151,37L131,0L20,0L0,37L20,74z" fill="#004400" fill-rule="evenodd"/>
            <text xml:space="preserve" style="fill:#ffffff;font-family:Open Sans,Candara,Helvetica Neue,Noto Sans,sans-serif;font-size:16pt">
                <tspan y="45" x="28.5">AlphaDex</tspan>
            </text>
        </g>
        <g transform="translate(730,637.5)" id="shape5">
            <path d="M20,74L131,74L151,37L131,0L20,0L0,37L20,74z" fill="#004400" fill-rule="evenodd"/>
            <text xml:space="preserve" style="fill:#ffffff;font-family:Open Sans,Candara,Helvetica Neue,Noto Sans,sans-serif;font-size:16pt">
                <tspan y="45" x="20.5">KittenSwap</tspan>
            </text>
        </g>
        <path d="M0,0L68,0" stroke-width="2" transform="translate(494,674.5)" fill="none" stroke="#006600" id="shape6"/>
        <path d="M0,0L-68,0" stroke-width="2" transform="translate(730,674.5)" fill="none" stroke="#006600" id="shape7"/>
        <path d="M0,0L0,41.5" stroke-width="2" transform="translate(612,603)" fill="none" stroke="#006600" id="shape8"/>
        <path d="M0,0L0,-41.5" stroke-width="2" transform="translate(612,746)" fill="none" stroke="#006600" id="shape9"/>
        <path d="M0,0L-136.5,0C-140.4,0,-143.5,-3.1,-143.5,-7L-143.5,-64.5" stroke-width="2" transform="translate(562,776)" fill="none" stroke="#006600" id="shape10"/>
        <path d="M0,0L136.5,0C140.4,0,143.5,-3.1,143.5,-7L143.5,-64.5" stroke-width="2" transform="translate(662,776)" fill="none" stroke="#006600" id="shape11"/>
        <path d="M0,0L0,-57.5C0,-61.4,3.1,-64.5,7,-64.5L143.5,-64.5" stroke-width="2" transform="translate(418.5,637.5)" fill="none" stroke="#006600" id="shape12"/>
        <path d="M0,0L0,-57.5C0,-61.4,-3.1,-64.5,-7,-64.5L-143.5,-64.5" stroke-width="2" transform="translate(805.5,637.5)" fill="none" stroke="#006600" id="shape13"/>
        <path d="M0,0L0,10.2C0,14.1,3.1,17.2,7,17.2L326.1,17.2C329.9,17.2,333.1,14.1,333.1,10.2L333.1,0" stroke-width="2" transform="translate(446.69,711.5)" fill="none" stroke="#006600" id="shape14"/>
    </g>
</svg>
